<svg xmlns="http://www.w3.org/2000/svg" width="960" height="720" viewBox="0 0 960 720">
  <defs>
    <linearGradient id="bg" x1="0" y1="0" x2="1" y2="1">
      <stop offset="0" stop-color="#0b0f16"/>
      <stop offset="1" stop-color="#070a0e"/>
    </linearGradient>
    <linearGradient id="accent" x1="0" y1="0" x2="1" y2="0">
      <stop offset="0" stop-color="#7c5cff" stop-opacity="0.9"/>
      <stop offset="1" stop-color="#22e6a8" stop-opacity="0.75"/>
    </linearGradient>
    <pattern id="grain" width="6" height="6" patternUnits="userSpaceOnUse">
      <circle cx="1" cy="2" r="0.8" fill="#ffffff" fill-opacity="0.06"/>
      <circle cx="5" cy="4" r="0.7" fill="#ffffff" fill-opacity="0.04"/>
    </pattern>
  </defs>
  <rect width="960" height="720" fill="url(#bg)"/>
  <rect x="0" y="0" width="480" height="720" fill="#0a0f17" opacity="0.85"/>
  <rect x="480" y="0" width="480" height="720" fill="#070a0e" opacity="0.6"/>
  <rect x="0" y="0" width="960" height="720" fill="url(#grain)"/>
  <rect x="0" y="0" width="960" height="6" fill="url(#accent)"/>
  <rect x="477" y="0" width="6" height="720" fill="url(#accent)" opacity="0.9"/>
  <g font-family="system-ui, -apple-system, Segoe UI, Roboto, Helvetica, Arial" fill="#ffffff">
    <text x="40" y="86" font-size="44" font-weight="800" fill-opacity="0.92">BEFORE</text>
    <text x="520" y="86" font-size="44" font-weight="800" fill-opacity="0.92">AFTER</text>
    <text x="40" y="130" font-size="18" fill-opacity="0.65">12 weeks · Fat Loss + Conditioning</text>
    <text x="520" y="130" font-size="18" fill-opacity="0.65">Stronger · Leaner · Structured</text>
  </g>
  <g opacity="0.9">
    <path d="M110 540 C190 420, 290 420, 370 540" fill="none" stroke="#7c5cff" stroke-width="6" stroke-linecap="round"/>
    <path d="M590 540 C670 360, 790 360, 850 540" fill="none" stroke="#22e6a8" stroke-width="6" stroke-linecap="round"/>
  </g>
</svg>


